<?xml version="1.0" standalone="no"?>
<!DOCTYPE svg PUBLIC "-//W3C//DTD SVG 20010904//EN"
 "http://www.w3.org/TR/2001/REC-SVG-20010904/DTD/svg10.dtd">
<svg version="1.0" xmlns="http://www.w3.org/2000/svg"
 width="591.000000pt" height="600.000000pt" viewBox="0 0 591.000000 600.000000"
 preserveAspectRatio="xMidYMid meet">
<metadata>
Created by potrace 1.16, written by Peter Selinger 2001-2019
</metadata>
<g transform="translate(0.000000,600.000000) scale(0.100000,-0.100000)"
fill="#000000" stroke="none">
<path d="M5415 5613 c-82 -8 -393 -65 -490 -89 -284 -71 -516 -182 -731 -349
-104 -82 -244 -222 -330 -331 -48 -60 -72 -83 -83 -79 -281 109 -520 155 -803
155 -311 0 -583 -55 -852 -171 -49 -22 -92 -39 -96 -39 -3 0 -22 22 -41 48
-169 226 -412 428 -674 560 -183 93 -331 138 -655 198 -239 44 -383 50 -444
19 -71 -36 -79 -56 -87 -222 -5 -100 -18 -197 -39 -298 -56 -276 -50 -529 21
-802 105 -411 386 -875 760 -1258 l79 -80 15 -116 c105 -801 726 -1448 1569
-1634 27 -6 24 -1 -35 63 -210 227 -241 486 -89 743 65 111 112 161 234 253
67 51 134 111 156 140 114 151 152 351 131 694 -14 239 -14 447 0 514 23 108
98 207 168 223 47 10 113 -26 157 -86 69 -95 88 -197 104 -564 15 -354 40
-494 112 -645 43 -89 57 -104 290 -325 132 -125 239 -289 273 -422 20 -76 18
-202 -4 -285 -9 -38 -15 -68 -11 -68 13 0 190 120 260 177 109 88 285 274 360
381 36 51 66 96 68 101 2 5 -27 -1 -65 -14 -87 -30 -219 -48 -291 -40 -302 34
-535 219 -629 500 -25 72 -27 94 -27 220 0 127 2 147 28 220 65 189 189 332
362 419 120 59 173 71 324 70 118 0 145 -4 215 -27 44 -15 109 -43 144 -64 64
-38 190 -151 227 -206 l20 -28 80 93 c230 265 412 551 519 813 21 50 45 108
55 130 29 64 79 277 96 409 23 175 14 375 -26 571 -21 101 -34 197 -38 292 -8
159 -18 183 -83 215 -36 18 -138 28 -204 21z m75 -382 c20 -38 7 -342 -26
-606 -45 -364 -145 -731 -262 -964 -47 -92 -221 -356 -229 -347 -2 1 -16 54
-32 117 -87 345 -249 633 -495 882 -90 90 -204 186 -294 247 -28 19 -50 38
-49 43 1 4 43 41 92 83 263 220 616 406 956 503 229 65 320 76 339 42z m-4785
-40 c398 -98 787 -294 1077 -543 l57 -49 -102 -76 c-184 -137 -363 -325 -487
-513 -116 -177 -228 -445 -261 -624 -7 -36 -15 -66 -19 -66 -14 0 -152 213
-199 307 -146 293 -245 718 -281 1198 -13 180 -13 351 0 376 15 27 72 25 215
-10z m1339 -1851 c248 -63 452 -267 517 -517 14 -53 20 -110 20 -178 0 -200
-67 -362 -211 -506 -73 -73 -101 -94 -180 -132 -134 -64 -212 -81 -352 -75
-197 9 -342 72 -478 208 -86 86 -139 171 -177 285 -25 73 -27 93 -27 225 0
131 3 152 27 219 44 121 93 199 181 286 93 92 199 154 318 185 101 26 260 26
362 0z"/>
<path d="M1815 3260 c-224 -25 -415 -190 -480 -415 -25 -83 -23 -230 4 -315
24 -77 78 -170 129 -222 39 -41 52 -47 52 -23 0 55 75 96 132 72 43 -18 59
-38 65 -85 4 -31 0 -44 -21 -69 -15 -17 -22 -34 -18 -37 27 -17 136 -36 202
-36 507 1 762 609 405 965 -129 129 -288 185 -470 165z m312 -152 c48 -29 77
-83 77 -143 -1 -114 -95 -192 -209 -171 -70 13 -135 95 -135 168 0 40 30 106
58 131 54 48 144 55 209 15z"/>
<path d="M4280 3285 c-155 -43 -298 -159 -363 -296 -49 -102 -61 -167 -55
-290 6 -119 26 -182 88 -279 l40 -61 27 20 c78 62 190 -19 155 -112 -6 -17 -9
-33 -6 -38 2 -4 30 -18 62 -30 71 -27 239 -37 325 -19 153 31 312 157 380 301
89 187 73 409 -41 576 -68 98 -157 167 -277 213 -78 30 -252 37 -335 15z m382
-137 c56 -32 83 -80 83 -149 0 -98 -72 -169 -170 -169 -94 0 -175 79 -175 170
0 128 148 212 262 148z"/>
<path d="M3119 1870 c-166 -20 -239 -62 -239 -138 0 -31 8 -44 58 -92 134
-127 331 -184 451 -130 94 43 221 186 221 249 0 58 -75 90 -255 111 -100 11
-139 11 -236 0z"/>
</g>
</svg>
