<svg version="1.1" id="Layer_1" xmlns="http://www.w3.org/2000/svg" xmlns:xlink="http://www.w3.org/1999/xlink" x="0px" y="0px"
	 width="100%" viewBox="0 0 591 600" enable-background="new 0 0 591 600" xml:space="preserve">
<path fill="#FFFFFF" opacity="1.000000" stroke="none" 
	d="
M592.000000,159.000000 
	C592.000000,306.666656 592.000000,453.833344 592.000000,601.000000 
	C395.000000,601.000000 198.000000,601.000000 1.000000,601.000000 
	C1.000000,401.000000 1.000000,201.000000 1.000000,1.000000 
	C198.000000,1.000000 395.000000,1.000000 592.000000,1.000000 
	C592.000000,53.500000 592.000000,106.000000 592.000000,159.000000 
M313.944885,595.989075 
	C404.827393,595.989075 495.709930,595.989075 587.000000,595.989075 
	C587.000000,594.335083 587.000000,593.049011 587.000000,591.763000 
	C587.000000,493.341248 587.000549,394.919525 586.993408,296.497772 
	C586.993347,295.335907 586.894226,294.174072 586.934692,292.500214 
	C586.903503,292.329559 586.872253,292.158905 586.988647,291.057861 
	C586.988647,196.060715 586.988647,101.063553 586.988647,6.010722 
	C496.849426,6.010722 407.424133,6.010562 317.998840,6.016826 
	C317.669647,6.016850 317.340485,6.109489 316.080322,6.032002 
	C305.049927,6.074403 294.019562,6.116805 282.059387,6.011384 
	C190.126999,6.011384 98.194611,6.011384 6.155069,6.011384 
	C6.155069,44.996834 6.155069,83.463638 6.015270,122.867294 
	C6.062402,130.931259 6.109535,138.995209 6.011048,147.978882 
	C6.011048,297.288239 6.011048,446.597595 6.011048,595.999878 
	C7.527234,595.999878 8.354888,595.999878 9.182542,595.999878 
	C100.619881,595.999939 192.057220,596.000549 283.494568,595.993591 
	C284.656677,595.993469 285.818817,595.896484 287.908081,595.970093 
	C296.278687,595.928467 304.649292,595.886841 313.944885,595.989075 
z"/>
<path fill="#383736" opacity="1.000000" stroke="none" 
	d="
M6.156667,147.059174 
	C6.109535,138.995209 6.062402,130.931259 6.367833,122.115631 
	C6.866816,118.879517 6.756497,116.348145 7.200765,113.918152 
	C10.406506,96.383713 14.965956,79.094856 14.162514,60.954311 
	C13.763392,51.942745 19.153938,46.502438 28.150555,46.137833 
	C36.309097,45.807198 44.661537,45.808315 52.670856,47.174038 
	C69.401825,50.026955 86.030777,53.585251 102.564484,57.441765 
	C110.568504,59.308720 118.262802,62.503502 126.159393,65.437103 
	C135.454620,71.011398 144.957352,75.827545 153.863586,81.568977 
	C171.226593,92.762108 185.545853,107.379601 198.802307,123.531021 
	C203.899414,130.569351 203.852539,130.461472 211.724899,127.041405 
	C262.867950,104.822784 314.899506,102.961708 367.743988,120.374130 
	C372.108063,121.812119 377.069824,125.292717 380.644409,124.198792 
	C384.308472,123.077461 386.611908,117.501900 389.498810,113.866318 
	C389.698090,113.615364 389.797302,113.284935 390.222870,112.809540 
	C409.932343,89.496971 433.017670,71.215523 460.991119,59.385067 
	C462.087830,58.921242 462.937469,57.873226 464.299011,57.061249 
	C480.820953,52.841339 496.820190,48.053593 513.109497,44.656937 
	C527.205139,41.717686 541.347717,38.174839 556.096619,39.910122 
	C565.921143,41.066029 570.763855,46.117817 571.061584,56.158272 
	C571.301331,64.244583 571.700073,72.367561 572.752502,80.379128 
	C574.533081,93.934135 577.804565,107.346977 578.796204,120.940170 
	C580.564697,145.183945 575.295959,168.618637 567.687988,191.760468 
	C553.106323,230.545120 530.376709,263.747528 502.448822,293.989960 
	C500.838959,291.841492 499.611053,290.062958 498.243591,288.399048 
	C481.412598,267.919098 459.601501,258.255615 433.414673,261.545258 
	C394.948212,266.377502 369.798553,296.285980 370.000427,335.074493 
	C370.181335,369.832306 399.512970,401.302002 434.100708,404.145111 
	C446.812012,405.189972 458.952515,403.233032 470.970703,398.962952 
	C471.146210,399.140137 471.515350,399.475586 471.383118,399.792603 
	C461.330139,416.240540 449.094818,430.517395 434.543518,442.483246 
	C424.349976,450.865662 412.932068,457.759186 402.080994,464.910950 
	C408.685608,446.305176 407.079498,428.985901 396.970245,412.355316 
	C389.636627,400.290894 381.312103,389.026031 369.874176,380.670715 
	C349.919220,366.093781 341.150818,345.753845 339.045410,322.087250 
	C337.512939,304.861084 337.046997,287.541931 335.972687,270.272491 
	C335.310730,259.631561 334.600647,248.879562 329.644867,239.198380 
	C326.108063,232.289185 321.494202,225.335007 312.634308,225.705994 
	C303.902100,226.071655 299.086426,232.960999 296.650909,240.314636 
	C294.340790,247.289642 292.999084,254.930054 293.031738,262.269867 
	C293.119720,282.068390 294.683197,301.862091 294.705872,321.658783 
	C294.735657,347.670013 286.937531,369.972260 263.188141,384.523071 
	C248.799103,393.338959 240.628189,407.376831 235.304504,422.985199 
	C230.460419,437.187347 231.066895,451.540527 238.654846,464.480225 
	C243.798096,473.251007 251.069839,480.773621 256.969910,488.871094 
	C216.692642,480.827362 181.848984,463.058807 152.785385,434.531403 
	C119.818451,402.172699 100.904915,362.925812 96.204681,316.879852 
	C96.006630,314.939667 95.078140,312.661346 93.721962,311.312958 
	C65.859398,283.610291 42.416069,252.745605 25.642107,216.711884 
	C25.045580,215.830338 24.500662,215.254501 23.903652,214.333069 
	C19.201296,199.414780 14.189850,184.943649 10.051276,170.227081 
	C7.943550,162.732101 7.404697,154.795914 6.156667,147.059174 
M102.051285,252.557327 
	C108.879044,228.257401 120.024338,206.148956 135.550339,186.231384 
	C147.513077,170.884949 161.789749,157.984390 177.919983,146.107040 
	C180.202438,144.588470 182.484879,143.069901 184.845795,141.499115 
	C184.222778,140.744141 183.954544,140.315689 183.591629,139.994019 
	C147.732773,108.210381 105.921944,88.540161 59.142780,79.136696 
	C50.754169,77.450447 48.499683,79.486458 48.915112,88.291817 
	C49.722332,105.401611 50.328339,122.558067 52.144421,139.574936 
	C55.364990,169.752029 61.527668,199.340439 73.037117,227.598083 
	C79.142570,242.587982 87.501999,256.219849 98.213928,269.429596 
	C99.518394,263.542419 100.651978,258.426453 102.051285,252.557327 
M418.066620,146.055573 
	C442.293152,163.176437 462.572327,184.128799 476.372437,210.424408 
	C483.859833,224.691299 488.873962,240.256180 494.952667,256.015564 
	C495.940002,260.521240 496.927338,265.026947 497.989105,269.872253 
	C512.643066,252.142075 523.853333,233.082275 531.058167,211.703720 
	C545.009644,170.306396 550.326904,127.563400 551.124207,84.113464 
	C551.269104,76.218742 548.627380,74.492760 539.687561,76.291771 
	C497.406158,84.800224 458.948425,101.708344 425.112976,128.678223 
	C420.237854,132.564163 415.588867,136.733856 410.548401,141.015915 
	C413.332855,142.846527 415.409180,144.211578 418.066620,146.055573 
M246.361740,295.162964 
	C228.750473,271.510071 205.057663,261.093323 176.136078,265.762817 
	C138.284866,271.873993 114.147362,303.125977 115.970818,341.427551 
	C117.914948,382.263855 157.807693,414.455383 197.975159,407.601196 
	C251.277267,398.505646 276.379669,340.987946 246.361740,295.162964 
z"/>
<path fill="#FDD62E" opacity="1.000000" stroke="none" 
	d="
M402.060974,465.317657 
	C412.932068,457.759186 424.349976,450.865662 434.543518,442.483246 
	C449.094818,430.517395 461.330139,416.240540 471.541809,399.593079 
	C471.796112,398.841034 471.759460,398.605469 471.722778,398.369934 
	C471.413574,398.508514 471.104370,398.647125 470.795166,398.785767 
	C458.952515,403.233032 446.812012,405.189972 434.100708,404.145111 
	C399.512970,401.302002 370.181335,369.832306 370.000427,335.074493 
	C369.798553,296.285980 394.948212,266.377502 433.414673,261.545258 
	C459.601501,258.255615 481.412598,267.919098 498.243591,288.399048 
	C499.611053,290.062958 500.838959,291.841492 502.448822,293.989960 
	C530.376709,263.747528 553.106323,230.545120 567.985352,192.015488 
	C570.789246,198.879425 573.307617,205.526978 575.000183,212.378494 
	C578.246643,225.520294 581.784363,238.664963 583.769043,252.021255 
	C585.524048,263.831909 585.313049,275.932983 586.027649,287.902374 
	C586.109619,289.275604 586.560974,290.626831 586.841064,291.988251 
	C586.872253,292.158905 586.903503,292.329559 586.526978,292.989136 
	C586.289612,309.399902 584.935791,325.143097 582.129272,340.864105 
	C578.280640,362.422546 571.310913,382.904022 562.589844,403.159119 
	C562.257751,403.925293 562.143433,404.492004 562.018188,405.028809 
	C562.007202,404.998962 562.069214,405.013458 561.796753,405.164276 
	C561.359558,405.897034 561.194763,406.478973 561.019043,407.030457 
	C561.008118,407.000000 561.070496,407.017334 560.749390,407.150879 
	C559.851379,408.082001 559.145386,408.815948 558.715942,409.686310 
	C540.292236,447.029663 514.725159,478.699646 482.999451,505.561310 
	C457.068573,527.516541 428.628571,545.273438 397.275574,558.470276 
	C373.715912,568.386841 349.335022,575.583008 323.955261,577.589294 
	C308.187683,578.835693 292.061890,577.537476 276.255432,575.874390 
	C247.123245,572.809143 219.576874,563.484436 193.051224,551.397156 
	C165.262894,538.734436 139.597443,522.630249 116.125252,502.909088 
	C97.435364,487.205994 80.670868,469.777161 66.237579,450.209930 
	C47.655819,425.018616 33.665245,397.450073 24.850466,367.261017 
	C18.066744,344.027924 14.681721,320.321808 14.170006,296.246429 
	C13.924191,284.681244 14.620824,272.986176 16.162434,261.520935 
	C18.053814,247.454376 21.251684,233.562042 23.975250,219.612061 
	C24.158934,218.671265 25.103195,217.878952 25.693718,217.017578 
	C42.416069,252.745605 65.859398,283.610291 93.721962,311.312958 
	C95.078140,312.661346 96.006630,314.939667 96.204681,316.879852 
	C100.904915,362.925812 119.818451,402.172699 152.785385,434.531403 
	C181.848984,463.058807 216.692642,480.827362 257.280273,488.963501 
	C267.379883,497.222076 278.184753,502.798615 289.969849,507.014404 
	C291.362915,509.655884 292.594727,512.015625 294.132751,514.155273 
	C306.542358,531.419006 326.572113,536.470276 344.174225,526.309814 
	C353.442078,520.960022 360.564209,513.444153 363.232727,502.272888 
	C382.056549,495.800079 394.470459,483.085419 402.060974,465.317657 
M399.986328,365.702240 
	C397.924316,371.651917 398.693970,375.852783 402.387421,378.807373 
	C406.405945,382.022095 410.631836,381.720734 417.163666,378.110687 
	C427.344269,383.355835 438.074951,385.327606 449.519501,384.190125 
	C480.083954,381.152405 505.304352,352.956238 499.593658,318.246277 
	C494.112762,284.932648 461.500397,264.018921 429.310120,272.400330 
	C389.209564,282.841278 372.371002,331.189331 399.986328,365.702240 
z"/>
<path fill="#FED62E" opacity="1.000000" stroke="none" 
	d="
M463.902252,57.097408 
	C462.937469,57.873226 462.087830,58.921242 460.991119,59.385067 
	C433.017670,71.215523 409.932343,89.496971 389.866760,112.765198 
	C361.136200,99.382576 331.311096,93.345291 300.321899,93.194679 
	C290.803497,93.148407 281.210907,94.579704 271.764954,96.055351 
	C245.596420,100.143394 221.138748,109.043182 198.675201,123.207153 
	C185.545853,107.379601 171.226593,92.762108 153.863586,81.568977 
	C144.957352,75.827545 135.454620,71.011398 126.513069,65.389725 
	C127.950699,64.107162 129.063965,63.165936 130.247635,62.323666 
	C150.082169,48.209843 170.837204,35.780312 193.563522,26.763496 
	C217.772186,17.158548 242.587845,10.193086 268.628418,7.968215 
	C273.431793,7.557819 278.203064,6.771836 282.989166,6.159206 
	C294.019562,6.116805 305.049927,6.074403 316.775940,6.454998 
	C331.379761,8.586085 345.419861,9.588719 359.166748,12.159345 
	C382.732178,16.565990 405.390625,24.200916 426.637238,35.385941 
	C439.346558,42.076637 451.499329,49.824650 463.902252,57.097408 
z"/>
<path fill="#000000" opacity="1.000000" stroke="none" 
	d="
M6.083858,147.519028 
	C7.404697,154.795914 7.943550,162.732101 10.051276,170.227081 
	C14.189850,184.943649 19.201296,199.414780 23.597065,214.580444 
	C21.649715,220.576538 19.896957,225.961731 18.274370,231.385864 
	C11.214222,254.987167 7.925547,279.230377 7.174562,303.746124 
	C6.822730,315.231628 8.286630,326.776886 9.006574,338.290131 
	C10.058152,355.106873 13.977490,371.354828 18.769445,387.440918 
	C27.054039,415.251373 40.103130,440.722046 56.876347,464.271545 
	C69.191864,481.562531 83.020782,497.628479 99.133011,511.532745 
	C108.908760,519.968872 118.785400,528.366882 129.235764,535.926208 
	C152.224380,552.555054 177.034424,565.966858 203.545731,576.215210 
	C226.196228,584.971069 249.349930,591.599487 273.599121,594.026367 
	C278.075562,594.474426 282.521118,595.230713 286.980927,595.844727 
	C285.818817,595.896484 284.656677,595.993469 283.494568,595.993591 
	C192.057220,596.000549 100.619881,595.999939 9.182542,595.999878 
	C8.354888,595.999878 7.527234,595.999878 6.011048,595.999878 
	C6.011048,446.597595 6.011048,297.288239 6.083858,147.519028 
z"/>
<path fill="#000000" opacity="1.000000" stroke="none" 
	d="
M562.807678,402.959656 
	C571.310913,382.904022 578.280640,362.422546 582.129272,340.864105 
	C584.935791,325.143097 586.289612,309.399902 586.480347,293.245117 
	C586.894226,294.174072 586.993347,295.335907 586.993408,296.497772 
	C587.000549,394.919525 587.000000,493.341248 587.000000,591.763000 
	C587.000000,593.049011 587.000000,594.335083 587.000000,595.989075 
	C495.709930,595.989075 404.827393,595.989075 313.712891,595.562866 
	C330.419037,594.798828 346.694824,590.836609 362.809174,586.051392 
	C386.719360,578.950989 409.276123,568.783447 430.714050,556.059448 
	C447.842621,545.893250 464.139404,534.501404 478.995605,521.285645 
	C489.474548,511.963806 499.363251,501.892456 508.782715,491.492126 
	C516.764648,482.679047 524.205872,473.265961 530.954041,463.475739 
	C538.218323,452.936737 544.792725,441.864624 550.910461,430.613159 
	C554.984009,423.121338 557.730225,414.907837 561.070557,407.017334 
	C561.070496,407.017334 561.008118,407.000000 561.318176,406.918701 
	C561.775208,406.229431 561.922241,405.621460 562.069214,405.013458 
	C562.069214,405.013458 562.007202,404.998962 562.322998,404.911621 
	C562.695007,404.202759 562.751343,403.581207 562.807678,402.959656 
z"/>
<path fill="#F0A841" opacity="1.000000" stroke="none" 
	d="
M560.749390,407.150879 
	C557.730225,414.907837 554.984009,423.121338 550.910461,430.613159 
	C544.792725,441.864624 538.218323,452.936737 530.954041,463.475739 
	C524.205872,473.265961 516.764648,482.679047 508.782715,491.492126 
	C499.363251,501.892456 489.474548,511.963806 478.995605,521.285645 
	C464.139404,534.501404 447.842621,545.893250 430.714050,556.059448 
	C409.276123,568.783447 386.719360,578.950989 362.809174,586.051392 
	C346.694824,590.836609 330.419037,594.798828 313.250397,595.490967 
	C304.649292,595.886841 296.278687,595.928467 287.444519,595.907471 
	C282.521118,595.230713 278.075562,594.474426 273.599121,594.026367 
	C249.349930,591.599487 226.196228,584.971069 203.545731,576.215210 
	C177.034424,565.966858 152.224380,552.555054 129.235764,535.926208 
	C118.785400,528.366882 108.908760,519.968872 99.133011,511.532745 
	C83.020782,497.628479 69.191864,481.562531 56.876347,464.271545 
	C40.103130,440.722046 27.054039,415.251373 18.769445,387.440918 
	C13.977490,371.354828 10.058152,355.106873 9.006574,338.290131 
	C8.286630,326.776886 6.822730,315.231628 7.174562,303.746124 
	C7.925547,279.230377 11.214222,254.987167 18.274370,231.385864 
	C19.896957,225.961731 21.649715,220.576538 23.649155,214.926041 
	C24.500662,215.254501 25.045580,215.830338 25.642109,216.711884 
	C25.103195,217.878952 24.158934,218.671265 23.975250,219.612061 
	C21.251684,233.562042 18.053814,247.454376 16.162434,261.520935 
	C14.620824,272.986176 13.924191,284.681244 14.170006,296.246429 
	C14.681721,320.321808 18.066744,344.027924 24.850466,367.261017 
	C33.665245,397.450073 47.655819,425.018616 66.237579,450.209930 
	C80.670868,469.777161 97.435364,487.205994 116.125252,502.909088 
	C139.597443,522.630249 165.262894,538.734436 193.051224,551.397156 
	C219.576874,563.484436 247.123245,572.809143 276.255432,575.874390 
	C292.061890,577.537476 308.187683,578.835693 323.955261,577.589294 
	C349.335022,575.583008 373.715912,568.386841 397.275574,558.470276 
	C428.628571,545.273438 457.068573,527.516541 482.999451,505.561310 
	C514.725159,478.699646 540.292236,447.029663 558.715942,409.686310 
	C559.145386,408.815948 559.851379,408.082001 560.749390,407.150879 
z"/>
<path fill="#000000" opacity="1.000000" stroke="none" 
	d="
M464.299011,57.061249 
	C451.499329,49.824650 439.346558,42.076637 426.637238,35.385941 
	C405.390625,24.200916 382.732178,16.565990 359.166748,12.159345 
	C345.419861,9.588719 331.379761,8.586085 317.241425,6.518434 
	C317.340485,6.109489 317.669647,6.016850 317.998840,6.016826 
	C407.424133,6.010562 496.849426,6.010722 586.988647,6.010722 
	C586.988647,101.063553 586.988647,196.060715 586.914856,291.523071 
	C586.560974,290.626831 586.109619,289.275604 586.027649,287.902374 
	C585.313049,275.932983 585.524048,263.831909 583.769043,252.021255 
	C581.784363,238.664963 578.246643,225.520294 575.000183,212.378494 
	C573.307617,205.526978 570.789246,198.879425 568.346558,191.884705 
	C575.295959,168.618637 580.564697,145.183945 578.796204,120.940170 
	C577.804565,107.346977 574.533081,93.934135 572.752502,80.379128 
	C571.700073,72.367561 571.301331,64.244583 571.061584,56.158272 
	C570.763855,46.117817 565.921143,41.066029 556.096619,39.910122 
	C541.347717,38.174839 527.205139,41.717686 513.109497,44.656937 
	C496.820190,48.053593 480.820953,52.841339 464.299011,57.061249 
z"/>
<path fill="#000000" opacity="1.000000" stroke="none" 
	d="
M282.524292,6.085296 
	C278.203064,6.771836 273.431793,7.557819 268.628418,7.968215 
	C242.587845,10.193086 217.772186,17.158548 193.563522,26.763496 
	C170.837204,35.780312 150.082169,48.209843 130.247635,62.323666 
	C129.063965,63.165936 127.950699,64.107162 126.451004,65.049721 
	C118.262802,62.503502 110.568504,59.308720 102.564484,57.441765 
	C86.030777,53.585251 69.401825,50.026955 52.670856,47.174038 
	C44.661537,45.808315 36.309097,45.807198 28.150555,46.137833 
	C19.153938,46.502438 13.763392,51.942745 14.162514,60.954311 
	C14.965956,79.094856 10.406506,96.383713 7.200765,113.918152 
	C6.756497,116.348145 6.866816,118.879517 6.437733,121.647202 
	C6.155069,83.463638 6.155069,44.996834 6.155069,6.011384 
	C98.194611,6.011384 190.126999,6.011384 282.524292,6.085296 
z"/>
<path fill="#FEFEFE" opacity="1.000000" stroke="none" 
	d="
M402.080994,464.910950 
	C394.470459,483.085419 382.056549,495.800079 362.828735,502.368042 
	C338.412903,510.099304 314.430298,512.853821 289.950439,506.630676 
	C278.184753,502.798615 267.379883,497.222076 257.700043,488.946838 
	C251.069839,480.773621 243.798096,473.251007 238.654846,464.480225 
	C231.066895,451.540527 230.460419,437.187347 235.304504,422.985199 
	C240.628189,407.376831 248.799103,393.338959 263.188141,384.523071 
	C286.937531,369.972260 294.735657,347.670013 294.705872,321.658783 
	C294.683197,301.862091 293.119720,282.068390 293.031738,262.269867 
	C292.999084,254.930054 294.340790,247.289642 296.650909,240.314636 
	C299.086426,232.960999 303.902100,226.071655 312.634308,225.705994 
	C321.494202,225.335007 326.108063,232.289185 329.644867,239.198380 
	C334.600647,248.879562 335.310730,259.631561 335.972687,270.272491 
	C337.046997,287.541931 337.512939,304.861084 339.045410,322.087250 
	C341.150818,345.753845 349.919220,366.093781 369.874176,380.670715 
	C381.312103,389.026031 389.636627,400.290894 396.970245,412.355316 
	C407.079498,428.985901 408.685608,446.305176 402.080994,464.910950 
M288.927063,429.115326 
	C290.721558,431.834564 291.969391,435.278778 294.420654,437.126953 
	C300.086182,441.398651 305.955048,445.785706 312.416321,448.546570 
	C334.002502,457.770111 349.087524,449.921753 361.118439,429.016479 
	C363.853638,424.263702 361.763794,419.515533 356.519196,417.931641 
	C336.798706,411.975891 316.923096,411.177521 297.065582,417.215210 
	C291.861084,418.797638 288.619598,422.413605 288.927063,429.115326 
z"/>
<path fill="#FFFEFE" opacity="1.000000" stroke="none" 
	d="
M495.003723,255.235565 
	C488.873962,240.256180 483.859833,224.691299 476.372437,210.424408 
	C462.572327,184.128799 442.293152,163.176437 418.044647,145.601425 
	C420.425995,143.365860 422.773773,141.503296 425.241058,139.815369 
	C454.947205,119.492653 487.830688,106.993080 523.033691,100.278702 
	C530.047485,98.940941 532.249268,100.822479 532.095581,108.051422 
	C531.925964,116.030540 531.491333,124.005814 531.072266,131.977509 
	C529.704529,157.994919 525.288147,183.507446 517.691223,208.413040 
	C512.582275,225.162064 506.038116,241.311768 495.003723,255.235565 
z"/>
<path fill="#FFFEFD" opacity="1.000000" stroke="none" 
	d="
M177.270874,146.330276 
	C161.789749,157.984390 147.513077,170.884949 135.550339,186.231384 
	C120.024338,206.148956 108.879044,228.257401 101.646469,252.716705 
	C100.048943,250.878418 98.727631,248.945648 97.682487,246.873566 
	C76.372856,204.625473 71.073677,159.061951 70.080353,112.642387 
	C69.970413,107.504227 72.795326,105.469109 77.968803,106.420715 
	C113.763184,113.004662 147.123840,125.678284 177.270874,146.330276 
z"/>
<path fill="#FBD32E" opacity="1.000000" stroke="none" 
	d="
M246.576416,295.455505 
	C276.379669,340.987946 251.277267,398.505646 197.975159,407.601196 
	C157.807693,414.455383 117.914948,382.263855 115.970818,341.427551 
	C114.147362,303.125977 138.284866,271.873993 176.136078,265.762817 
	C205.057663,261.093323 228.750473,271.510071 246.576416,295.455505 
M152.856186,375.236450 
	C153.992828,383.168396 158.661255,385.895233 168.346527,384.168243 
	C178.993790,388.543121 189.974487,389.206909 201.179214,387.013123 
	C229.580154,381.452454 249.465149,353.883087 245.826050,324.483978 
	C242.309601,296.075836 219.317108,273.934692 188.566437,274.444763 
	C153.206009,275.031342 128.436157,304.637634 133.113541,339.867401 
	C134.969223,353.844208 141.306931,365.760620 152.856186,375.236450 
z"/>
<path fill="#FCD52F" opacity="1.000000" stroke="none" 
	d="
M177.595428,146.218658 
	C147.123840,125.678284 113.763184,113.004662 77.968803,106.420715 
	C72.795326,105.469109 69.970413,107.504227 70.080353,112.642387 
	C71.073677,159.061951 76.372856,204.625473 97.682487,246.873566 
	C98.727631,248.945648 100.048943,250.878418 101.513611,253.093277 
	C100.651978,258.426453 99.518394,263.542419 98.213928,269.429596 
	C87.501999,256.219849 79.142570,242.587982 73.037117,227.598083 
	C61.527668,199.340439 55.364990,169.752029 52.144421,139.574936 
	C50.328339,122.558067 49.722332,105.401611 48.915112,88.291817 
	C48.499683,79.486458 50.754169,77.450447 59.142780,79.136696 
	C105.921944,88.540161 147.732773,108.210381 183.591629,139.994019 
	C183.954544,140.315689 184.222778,140.744141 184.845795,141.499115 
	C182.484879,143.069901 180.202438,144.588470 177.595428,146.218658 
z"/>
<path fill="#FCD52F" opacity="1.000000" stroke="none" 
	d="
M494.978180,255.625565 
	C506.038116,241.311768 512.582275,225.162064 517.691223,208.413040 
	C525.288147,183.507446 529.704529,157.994919 531.072266,131.977509 
	C531.491333,124.005814 531.925964,116.030540 532.095581,108.051422 
	C532.249268,100.822479 530.047485,98.940941 523.033691,100.278702 
	C487.830688,106.993080 454.947205,119.492653 425.241058,139.815369 
	C422.773773,141.503296 420.425995,143.365860 417.754089,145.361954 
	C415.409180,144.211578 413.332855,142.846527 410.548401,141.015915 
	C415.588867,136.733856 420.237854,132.564163 425.112976,128.678223 
	C458.948425,101.708344 497.406158,84.800224 539.687561,76.291771 
	C548.627380,74.492760 551.269104,76.218742 551.124207,84.113464 
	C550.326904,127.563400 545.009644,170.306396 531.058167,211.703720 
	C523.853333,233.082275 512.643066,252.142075 497.989105,269.872253 
	C496.927338,265.026947 495.940002,260.521240 494.978180,255.625565 
z"/>
<path fill="#EEA741" opacity="1.000000" stroke="none" 
	d="
M198.802307,123.531021 
	C221.138748,109.043182 245.596420,100.143394 271.764954,96.055351 
	C281.210907,94.579704 290.803497,93.148407 300.321899,93.194679 
	C331.311096,93.345291 361.136200,99.382576 389.586975,112.947128 
	C389.797302,113.284935 389.698090,113.615364 389.498810,113.866318 
	C386.611908,117.501900 384.308472,123.077461 380.644409,124.198792 
	C377.069824,125.292717 372.108063,121.812119 367.743988,120.374130 
	C314.899506,102.961708 262.867950,104.822784 211.724899,127.041405 
	C203.852539,130.461472 203.899414,130.569351 198.802307,123.531021 
z"/>
<path fill="#383736" opacity="1.000000" stroke="none" 
	d="
M400.208801,364.895294 
	C372.371002,331.189331 389.209564,282.841278 429.310120,272.400330 
	C461.500397,264.018921 494.112762,284.932648 499.593658,318.246277 
	C505.304352,352.956238 480.083954,381.152405 449.519501,384.190125 
	C438.074951,385.327606 427.344269,383.355835 416.975128,377.621735 
	C417.316406,374.156769 418.837036,370.943359 418.191406,368.248962 
	C416.204132,359.955200 407.788208,358.557861 400.208801,364.895294 
M475.063904,296.636139 
	C471.578796,286.658081 462.923798,281.733276 453.718903,284.490509 
	C444.653473,287.205994 439.556976,296.090515 441.853790,305.174500 
	C444.144562,314.234650 452.980774,319.742188 462.159943,317.831116 
	C471.337830,315.920319 476.876160,307.263702 475.063904,296.636139 
z"/>
<path fill="#FA815C" opacity="1.000000" stroke="none" 
	d="
M289.969849,507.014404 
	C314.430298,512.853821 338.412903,510.099304 362.538513,502.537384 
	C360.564209,513.444153 353.442078,520.960022 344.174225,526.309814 
	C326.572113,536.470276 306.542358,531.419006 294.132751,514.155273 
	C292.594727,512.015625 291.362915,509.655884 289.969849,507.014404 
z"/>
<path fill="#FDFBDC" opacity="1.000000" stroke="none" 
	d="
M400.097565,365.298767 
	C407.788208,358.557861 416.204132,359.955200 418.191406,368.248962 
	C418.837036,370.943359 417.316406,374.156769 416.614319,377.468964 
	C410.631836,381.720734 406.405945,382.022095 402.387421,378.807373 
	C398.693970,375.852783 397.924316,371.651917 400.097565,365.298767 
z"/>
<path fill="#F0A841" opacity="1.000000" stroke="none" 
	d="
M562.589844,403.159119 
	C562.751343,403.581207 562.695007,404.202759 562.333984,404.941498 
	C562.143433,404.492004 562.257751,403.925293 562.589844,403.159119 
z"/>
<path fill="#F0A841" opacity="1.000000" stroke="none" 
	d="
M561.796753,405.164276 
	C561.922241,405.621460 561.775208,406.229431 561.329102,406.949158 
	C561.194763,406.478973 561.359558,405.897034 561.796753,405.164276 
z"/>
<path fill="#383736" opacity="1.000000" stroke="none" 
	d="
M470.970703,398.962952 
	C471.104370,398.647125 471.413574,398.508514 471.722778,398.369934 
	C471.759460,398.605469 471.796112,398.841034 471.674072,399.276062 
	C471.515350,399.475586 471.146210,399.140137 470.970703,398.962952 
z"/>
<path fill="#393838" opacity="1.000000" stroke="none" 
	d="
M288.886169,428.711548 
	C288.619598,422.413605 291.861084,418.797638 297.065582,417.215210 
	C316.923096,411.177521 336.798706,411.975891 356.519196,417.931641 
	C361.763794,419.515533 363.853638,424.263702 361.118439,429.016479 
	C349.087524,449.921753 334.002502,457.770111 312.416321,448.546570 
	C305.955048,445.785706 300.086182,441.398651 294.420654,437.126953 
	C291.969391,435.278778 290.721558,431.834564 288.886169,428.711548 
z"/>
<path fill="#383736" opacity="1.000000" stroke="none" 
	d="
M152.745987,374.550079 
	C141.306931,365.760620 134.969223,353.844208 133.113541,339.867401 
	C128.436157,304.637634 153.206009,275.031342 188.566437,274.444763 
	C219.317108,273.934692 242.309601,296.075836 245.826050,324.483978 
	C249.465149,353.883087 229.580154,381.452454 201.179214,387.013123 
	C189.974487,389.206909 178.993790,388.543121 168.175919,383.719910 
	C172.821228,379.004272 174.044250,374.760406 171.794846,370.122009 
	C169.881042,366.175659 165.470367,363.992340 160.975998,364.766602 
	C156.152359,365.597565 153.495804,368.755585 152.745987,374.550079 
M187.165222,306.231293 
	C188.987488,315.031891 193.771530,320.243652 201.309235,321.639679 
	C207.917938,322.863708 215.094833,319.811493 218.680222,314.252136 
	C222.596252,308.180145 222.416962,300.184540 218.238373,294.549286 
	C213.807373,288.573639 206.183578,286.070374 199.124695,288.273315 
	C191.771454,290.568146 187.535721,296.628723 187.165222,306.231293 
z"/>
<path fill="#FCFADA" opacity="1.000000" stroke="none" 
	d="
M152.801086,374.893250 
	C153.495804,368.755585 156.152359,365.597565 160.975998,364.766602 
	C165.470367,363.992340 169.881042,366.175659 171.794846,370.122009 
	C174.044250,374.760406 172.821228,379.004272 167.808716,383.563477 
	C158.661255,385.895233 153.992828,383.168396 152.801086,374.893250 
z"/>
<path fill="#FCFBDD" opacity="1.000000" stroke="none" 
	d="
M475.142029,297.026855 
	C476.876160,307.263702 471.337830,315.920319 462.159943,317.831116 
	C452.980774,319.742188 444.144562,314.234650 441.853790,305.174500 
	C439.556976,296.090515 444.653473,287.205994 453.718903,284.490509 
	C462.923798,281.733276 471.578796,286.658081 475.142029,297.026855 
z"/>
<path fill="#FBFADC" opacity="1.000000" stroke="none" 
	d="
M187.160477,305.814972 
	C187.535721,296.628723 191.771454,290.568146 199.124695,288.273315 
	C206.183578,286.070374 213.807373,288.573639 218.238373,294.549286 
	C222.416962,300.184540 222.596252,308.180145 218.680222,314.252136 
	C215.094833,319.811493 207.917938,322.863708 201.309235,321.639679 
	C193.771530,320.243652 188.987488,315.031891 187.160477,305.814972 
z"/>
</svg>