<?xml version="1.0" standalone="no"?>
<!DOCTYPE svg PUBLIC "-//W3C//DTD SVG 20010904//EN"
 "http://www.w3.org/TR/2001/REC-SVG-20010904/DTD/svg10.dtd">
<svg version="1.0" xmlns="http://www.w3.org/2000/svg"
 width="800.000000pt" height="800.000000pt" viewBox="0 0 800.000000 800.000000"
 preserveAspectRatio="xMidYMid meet">
<metadata>
Created by potrace 1.16, written by Peter Selinger 2001-2019
</metadata>
<g transform="translate(0.000000,800.000000) scale(0.100000,-0.100000)"
fill="#000000" stroke="none">
<path d="M1290 5093 c0 -731 5 -1418 10 -1528 26 -539 109 -916 277 -1263 62
-128 218 -368 337 -517 111 -139 438 -463 576 -569 456 -353 958 -574 1442
-636 126 -16 389 31 630 111 522 174 1049 535 1435 984 395 459 582 863 662
1435 43 303 44 328 48 1843 l4 1467 -2710 0 -2711 0 0 -1327z m4660 -428 c0
-815 -2 -975 -13 -968 -8 4 -502 374 -1100 821 l-1085 812 -248 -2 -248 -3
843 -630 c463 -346 1062 -794 1329 -994 l487 -364 -1 -81 c-2 -146 -63 -390
-144 -578 -106 -244 -353 -562 -603 -776 -308 -263 -649 -436 -1002 -508 -152
-30 -212 -29 -394 12 -368 83 -746 297 -1053 597 -440 429 -619 821 -668 1456
-10 138 -14 621 -5 621 5 0 688 -507 1581 -1175 449 -335 1164 -867 1185 -883
15 -11 26 -6 76 34 63 51 173 155 173 164 0 3 -30 28 -67 55 -38 28 -513 383
-1058 790 -545 407 -1194 893 -1442 1079 l-453 338 0 579 0 579 1955 0 1955 0
0 -975z"/>
</g>
</svg>
