<svg version="1.1" id="Layer_1" xmlns="http://www.w3.org/2000/svg" xmlns:xlink="http://www.w3.org/1999/xlink" x="0px" y="0px"
	 width="100%" viewBox="0 0 800 800" enable-background="new 0 0 800 800" xml:space="preserve">
<path fill="#000000" opacity="1.000000" stroke="none" 
	d="
M501.000000,801.000000 
	C334.000000,801.000000 167.500000,801.000000 1.000000,801.000000 
	C1.000000,534.333313 1.000000,267.666656 1.000000,1.000000 
	C267.666656,1.000000 534.333313,1.000000 801.000000,1.000000 
	C801.000000,267.666656 801.000000,534.333313 801.000000,801.000000 
	C701.166687,801.000000 601.333313,801.000000 501.000000,801.000000 
M664.094177,507.601685 
	C669.863403,480.009003 671.646790,451.952820 671.812134,423.934235 
	C672.316345,338.458191 671.993408,252.977264 671.989075,167.498245 
	C671.988647,159.015091 671.978027,159.003510 663.554016,159.003403 
	C488.430359,159.001205 313.306702,159.001144 138.183029,159.003952 
	C130.017639,159.004089 130.004608,159.018234 130.004288,167.244385 
	C130.001221,245.391861 129.878403,323.539673 130.092468,401.686584 
	C130.144791,420.786743 130.858032,439.913025 132.101654,458.972870 
	C133.050232,473.510651 134.808502,488.043671 137.109543,502.434448 
	C141.145477,527.675598 148.499161,552.033752 160.472198,574.676208 
	C172.552460,597.521362 187.618851,618.482605 205.165878,637.411987 
	C220.304260,653.742981 236.270660,669.298828 254.189041,682.751831 
	C286.699615,707.160522 322.085449,725.733704 361.349182,736.590027 
	C382.453064,742.425232 403.569153,745.512817 425.597687,740.497253 
	C452.689606,734.328796 478.436157,725.086487 502.955139,712.074585 
	C529.999695,697.722473 554.494751,679.865479 576.552734,658.756958 
	C586.624023,649.119080 596.021118,638.722412 605.174622,628.192383 
	C618.605896,612.741455 630.298828,595.989685 640.003784,577.927673 
	C651.745605,556.074768 659.091858,532.677124 664.094177,507.601685 
z"/>
<path fill="#142D51" opacity="1.000000" stroke="none" 
	d="
M664.047852,508.026245 
	C659.091858,532.677124 651.745605,556.074768 640.003784,577.927673 
	C630.298828,595.989685 618.605896,612.741455 605.174622,628.192383 
	C596.021118,638.722412 586.624023,649.119080 576.552734,658.756958 
	C554.494751,679.865479 529.999695,697.722473 502.955139,712.074585 
	C478.436157,725.086487 452.689606,734.328796 425.597687,740.497253 
	C403.569153,745.512817 382.453064,742.425232 361.349182,736.590027 
	C322.085449,725.733704 286.699615,707.160522 254.189041,682.751831 
	C236.270660,669.298828 220.304260,653.742981 205.165878,637.411987 
	C187.618851,618.482605 172.552460,597.521362 160.472198,574.676208 
	C148.499161,552.033752 141.145477,527.675598 137.109543,502.434448 
	C134.808502,488.043671 133.050232,473.510651 132.101654,458.972870 
	C130.858032,439.913025 130.144791,420.786743 130.092468,401.686584 
	C129.878403,323.539673 130.001221,245.391861 130.004288,167.244385 
	C130.004608,159.018234 130.017639,159.004089 138.183029,159.003952 
	C313.306702,159.001144 488.430359,159.001205 663.554016,159.003403 
	C671.978027,159.003510 671.988647,159.015091 671.989075,167.498245 
	C671.993408,252.977264 672.316345,338.458191 671.812134,423.934235 
	C671.646790,451.952820 669.863403,480.009003 664.047852,508.026245 
M330.965240,268.108459 
	C344.129974,268.096405 357.299194,267.897430 370.456116,268.212036 
	C373.505890,268.284973 377.031067,269.416595 379.465485,271.231049 
	C445.970093,320.799316 512.360291,370.521027 578.773865,420.211456 
	C584.189148,424.263123 589.634949,428.273987 595.691833,432.767700 
	C595.691833,366.837524 595.691833,301.815704 595.691833,236.167038 
	C593.612854,236.167038 591.828735,236.167053 590.044617,236.167053 
	C463.719940,236.167175 337.395264,236.166519 211.070572,236.169617 
	C204.717316,236.169769 204.703934,236.184921 204.702988,242.847778 
	C204.698151,277.178772 204.840607,311.510895 204.557938,345.839539 
	C204.512772,351.326080 206.323975,354.511688 210.613007,357.711090 
	C307.670563,430.110168 404.620941,502.652924 501.584717,575.177673 
	C503.239502,576.415344 504.811981,577.763123 507.035248,579.552368 
	C500.133270,585.516418 493.747040,590.834412 487.609772,596.425598 
	C484.695435,599.080627 482.700684,598.750977 479.582947,596.421082 
	C389.926392,529.419678 300.178009,462.541260 210.437790,395.651855 
	C208.898758,394.504700 207.277893,393.467285 205.499207,392.243896 
	C205.121140,393.231628 204.811096,393.666077 204.808350,394.102478 
	C204.614899,424.780762 203.565475,455.476227 208.956055,485.930847 
	C211.872467,502.407471 215.938080,518.517029 223.086212,533.639282 
	C236.507477,562.032471 255.545853,586.321716 278.820312,607.268921 
	C311.364716,636.559265 348.499512,656.831116 392.172058,663.916077 
	C395.421906,664.443237 398.861938,665.392395 401.981445,664.838440 
	C412.486115,662.973022 423.041229,661.069519 433.297943,658.187378 
	C469.986725,647.877563 501.045593,627.819031 528.367737,601.711914 
	C547.393127,583.532654 563.621033,563.118164 575.578430,539.544189 
	C585.423401,520.134888 590.266235,499.287781 593.097595,477.849213 
	C593.803040,472.507782 594.924011,468.113251 589.285522,463.935242 
	C530.403381,420.304504 471.731476,376.389893 413.032959,332.511627 
	C385.292999,311.775421 357.621399,290.947784 329.955048,269.510345 
	C329.982483,269.076416 330.009918,268.642456 330.965240,268.108459 
z"/>
<path fill="#179BF0" opacity="1.000000" stroke="none" 
	d="
M329.918823,270.161591 
	C357.621399,290.947784 385.292999,311.775421 413.032959,332.511627 
	C471.731476,376.389893 530.403381,420.304504 589.285522,463.935242 
	C594.924011,468.113251 593.803040,472.507782 593.097595,477.849213 
	C590.266235,499.287781 585.423401,520.134888 575.578430,539.544189 
	C563.621033,563.118164 547.393127,583.532654 528.367737,601.711914 
	C501.045593,627.819031 469.986725,647.877563 433.297943,658.187378 
	C423.041229,661.069519 412.486115,662.973022 401.981445,664.838440 
	C398.861938,665.392395 395.421906,664.443237 392.172058,663.916077 
	C348.499512,656.831116 311.364716,636.559265 278.820312,607.268921 
	C255.545853,586.321716 236.507477,562.032471 223.086212,533.639282 
	C215.938080,518.517029 211.872467,502.407471 208.956055,485.930847 
	C203.565475,455.476227 204.614899,424.780762 204.808350,394.102478 
	C204.811096,393.666077 205.121140,393.231628 205.499207,392.243896 
	C207.277893,393.467285 208.898758,394.504700 210.437790,395.651855 
	C300.178009,462.541260 389.926392,529.419678 479.582947,596.421082 
	C482.700684,598.750977 484.695435,599.080627 487.609772,596.425598 
	C493.747040,590.834412 500.133270,585.516418 507.035248,579.552368 
	C504.811981,577.763123 503.239502,576.415344 501.584717,575.177673 
	C404.620941,502.652924 307.670563,430.110168 210.613007,357.711090 
	C206.323975,354.511688 204.512772,351.326080 204.557938,345.839539 
	C204.840607,311.510895 204.698151,277.178772 204.702988,242.847778 
	C204.703934,236.184921 204.717316,236.169769 211.070572,236.169617 
	C337.395264,236.166519 463.719940,236.167175 590.044617,236.167053 
	C591.828735,236.167053 593.612854,236.167038 595.691833,236.167038 
	C595.691833,301.815704 595.691833,366.837524 595.691833,432.767700 
	C589.634949,428.273987 584.189148,424.263123 578.773865,420.211456 
	C512.360291,370.521027 445.970093,320.799316 379.465485,271.231049 
	C377.031067,269.416595 373.505890,268.284973 370.456116,268.212036 
	C357.299194,267.897430 344.129974,268.096405 330.196899,268.103363 
	C329.066101,268.291382 328.703613,268.484497 328.341156,268.677612 
	C328.867065,269.172272 329.392944,269.666931 329.918823,270.161591 
z"/>
<path fill="#153D67" opacity="1.000000" stroke="none" 
	d="
M329.936951,269.835968 
	C329.392944,269.666931 328.867065,269.172272 328.341156,268.677612 
	C328.703613,268.484497 329.066101,268.291382 329.732971,268.153381 
	C330.009918,268.642456 329.982483,269.076416 329.936951,269.835968 
z"/>
</svg>