<?xml version="1.0" standalone="no"?>
<!DOCTYPE svg PUBLIC "-//W3C//DTD SVG 20010904//EN"
 "http://www.w3.org/TR/2001/REC-SVG-20010904/DTD/svg10.dtd">
<svg version="1.0" xmlns="http://www.w3.org/2000/svg"
 width="800.000000pt" height="800.000000pt" viewBox="0 0 800.000000 800.000000"
 preserveAspectRatio="xMidYMid meet">

<g transform="translate(0.000000,800.000000) scale(0.100000,-0.100000)"
fill="#000000" stroke="none">
<path d="M1303 4923 c3 -1633 2 -1593 62 -1928 80 -441 221 -766 487 -1118
488 -647 1196 -1117 1900 -1261 182 -37 255 -41 383 -22 820 126 1645 692
2153 1476 239 368 363 796 402 1385 6 88 10 732 10 1558 l0 1407 -2700 0
-2701 0 4 -1497z m4647 -258 c0 -815 -2 -975 -13 -968 -8 4 -502 374 -1100
821 l-1085 812 -248 -2 -248 -3 843 -630 c463 -346 1062 -794 1329 -994 l487
-364 -1 -81 c-2 -146 -63 -390 -144 -578 -106 -244 -353 -562 -603 -776 -308
-263 -649 -436 -1002 -508 -152 -30 -212 -29 -394 12 -368 83 -746 297 -1053
597 -440 429 -619 821 -668 1456 -10 138 -14 621 -5 621 5 0 688 -507 1581
-1175 449 -335 1164 -867 1185 -883 15 -11 26 -6 76 34 63 51 173 155 173 164
0 3 -30 28 -67 55 -38 28 -513 383 -1058 790 -545 407 -1194 893 -1442 1079
l-453 338 0 579 0 579 1955 0 1955 0 0 -975z"/>
</g>
</svg>
